<svg id="Logo" xmlns="http://www.w3.org/2000/svg" width="500" height="500" viewBox="0 0 500 500">
  <defs>
    <style>
      .customext-cls-1 {
        fill: #fff;
      }

      .customext-cls-2, .customext-cls-4 {
        fill: none;
        stroke-linecap: round;
        stroke-linejoin: round;
      }

      .customext-cls-2 {
        stroke: #419a1c;
        stroke-width: 14px;
      }

      .customext-cls-2, .customext-cls-3, .customext-cls-4 {
        fill-rule: evenodd;
      }

      .customext-cls-3 {
        fill: #1761a0;
      }

      .customext-cls-4 {
        stroke: #1761a0;
        stroke-width: 24px;
      }
    </style>
  </defs>
  <rect id="bg" class="customext-cls-1" width="500" height="500"/>
  <g id="Fingerprint">
    <g id="_0" data-name="0">
      <path id="_0_unten" data-name="0 unten" class="customext-cls-2" d="M277.635,429.6a255.736,255.736,0,0,1-21.925-51.1"/>
    </g>
    <g id="_1" data-name="1">
      <path id="_1_ur" data-name="1 ur" class="customext-cls-2" d="M308.053,422.133a225.553,225.553,0,0,1-25.785-59.876"/>
      <path id="_1_ul" data-name="1 ul" class="customext-cls-2" d="M244.556,431.256a285.331,285.331,0,0,1-19.689-51.379"/>
    </g>
    <g id="_2" data-name="2">
      <path id="_2_ur" data-name="2 ur" class="customext-cls-2" d="M335.826,409.94a194.994,194.994,0,0,1-29.97-84.152"/>
      <path id="_2_ul" data-name="2 ul" class="customext-cls-2" d="M209.469,426.743A314.292,314.292,0,0,1,189.146,357.4"/>
    </g>
    <g id="_3" data-name="3">
      <path id="_3_ur" data-name="3 ur" class="customext-cls-2" d="M361.053,393.7a164.48,164.48,0,0,1-22.728-123.728"/>
      <path id="_3_oben" data-name="3 oben" class="customext-cls-2" d="M162.259,232.552a90,90,0,1,1,176.066,37.424"/>
      <path id="_3_ul" data-name="3 ul" class="customext-cls-2" d="M172.552,413.935a343.405,343.405,0,0,1-10.293-181.383"/>
    </g>
    <g id="_4" data-name="4">
      <path id="_4_ur" data-name="4 ur" class="customext-cls-2" d="M383.5,372.971a135.066,135.066,0,0,1-16.878-45.884m-1.887-26.1a135.7,135.7,0,0,1,2.934-24.773"/>
      <path id="_4_oben" data-name="4 oben" class="customext-cls-2" d="M132.914,226.314a119.979,119.979,0,0,1,83.742-90.264m37.309-4.751A120.236,120.236,0,0,1,349.7,184.048m15.532,32.658a119.47,119.47,0,0,1,2.438,59.507"/>
      <path id="_4_ul" data-name="4 ul" class="customext-cls-2" d="M134.394,389.305a372.68,372.68,0,0,1-6.887-130.845"/>
    </g>
    <g id="_5" data-name="5">
      <path id="_5_ur" data-name="5 ur" class="customext-cls-2" d="M403.5,346.34a104.522,104.522,0,0,1-6.489-63.889"/>
      <path id="_5_oben" data-name="5 oben" class="customext-cls-2" d="M103.57,220.077a150,150,0,0,1,293.444,62.374"/>
      <path id="_5_ul" data-name="5 ul" class="customext-cls-2" d="M96.709,345.461a404.728,404.728,0,0,1,6.861-125.384"/>
    </g>
    <g id="_6" data-name="6">
      <path id="_6_oben" data-name="6 oben" class="customext-cls-2" d="M74.226,213.84a179.5,179.5,0,0,1,26.849-63.331M120.1,126.925A179.886,179.886,0,0,1,287.716,75.2q5,1.062,9.867,2.385m23.675,8.224a178.728,178.728,0,0,1,43.1,26.163m20.492,19.716a179.749,179.749,0,0,1,41.511,157"/>
    </g>
  </g>
  <g id="Maus">
    <path id="Maus_aussen" data-name="Maus aussen" class="customext-cls-3" d="M216.657,166.232l97.814,20.791a30,30,0,0,1,23.107,35.582l-22.87,107.6a80,80,0,1,1-156.5-33.266l22.87-107.6A30,30,0,0,1,216.657,166.232Zm-5.2,24.454,97.815,20.791a5,5,0,0,1,3.851,5.93L290.254,325a55,55,0,1,1-107.6-22.87l22.87-107.6A5,5,0,0,1,211.459,190.686Z"/>
    <path id="Mausrad" class="customext-cls-3" d="M257.247,215.753a12,12,0,0,1,9.243,14.233l-5.405,25.432a12,12,0,1,1-23.476-4.99L243.015,225A12,12,0,0,1,257.247,215.753Z"/>
    <path id="Kabel_1" data-name="Kabel 1" class="customext-cls-4" d="M263.809,183l8.524-40.1a30,30,0,0,1,35.582-23.107l6.847,1.455"/>
    <path id="Kabel_2" data-name="Kabel 2" class="customext-cls-4" d="M361.8,58.652l-8.525,40.1A30,30,0,0,1,317.7,121.863l-2.935-.624"/>
  </g>
</svg>
