<?xml version="1.0" standalone="no"?>
<!DOCTYPE svg PUBLIC "-//W3C//DTD SVG 20010904//EN"
 "http://www.w3.org/TR/2001/REC-SVG-20010904/DTD/svg10.dtd">
<svg version="1.0" xmlns="http://www.w3.org/2000/svg"
 width="700.000000pt" height="700.000000pt" viewBox="0 0 700.000000 700.000000"
 preserveAspectRatio="xMidYMid meet">
<metadata>
Created by potrace 1.14, written by Peter Selinger 2001-2017
</metadata>
<g transform="translate(0.000000,700.000000) scale(0.100000,-0.100000)"
fill="#000000" stroke="none">
<path d="M3299 6776 c-2 -2 -44 -7 -93 -11 -49 -4 -98 -8 -110 -10 -11 -2 -68
-11 -126 -20 -287 -44 -646 -159 -920 -295 -253 -126 -525 -310 -730 -495
-178 -161 -370 -376 -490 -550 -19 -27 -38 -52 -41 -55 -3 -3 -40 -62 -83
-132 -114 -191 -205 -376 -278 -573 -29 -78 -95 -290 -102 -330 -2 -11 -9 -38
-14 -60 -6 -22 -13 -53 -16 -70 -8 -44 -25 -137 -30 -161 -4 -20 -10 -67 -20
-159 -13 -114 -18 -215 -18 -355 0 -177 7 -290 28 -445 8 -61 45 -269 49 -276
2 -3 6 -17 9 -31 2 -14 16 -68 30 -119 149 -544 439 -1042 841 -1444 66 -66
144 -140 174 -165 30 -25 70 -59 90 -76 47 -39 197 -147 286 -205 130 -85 305
-178 498 -264 141 -62 418 -150 567 -179 14 -3 50 -10 80 -15 30 -6 66 -13 80
-16 14 -3 43 -7 65 -10 22 -3 51 -7 65 -10 132 -26 647 -27 820 -1 14 2 50 7
80 10 30 4 74 12 98 17 23 5 59 12 80 15 129 20 425 112 602 186 284 119 560
284 802 479 93 75 337 310 414 399 152 177 288 374 409 595 21 39 42 77 46 85
20 35 80 173 117 266 93 236 159 485 197 749 4 22 8 50 10 62 29 176 23 677
-9 843 -3 14 -8 45 -11 70 -9 70 -15 102 -25 140 -5 19 -11 47 -14 61 -10 58
-67 260 -100 356 -119 340 -283 641 -518 948 -177 231 -477 510 -733 684 -437
297 -963 495 -1450 547 -33 3 -73 8 -90 11 -35 6 -511 14 -516 9z"/>
</g>
</svg>
